<svg width="173" height="31" viewBox="0 0 173 31" fill="none" xmlns="http://www.w3.org/2000/svg">
<path d="M13.8053 30.6C10.9386 30.6 8.51865 29.9667 6.54531 28.7C4.57198 27.42 3.07865 25.6533 2.06531 23.4C1.05198 21.1467 0.545314 18.5467 0.545314 15.6C0.545314 12.6533 1.05198 10.0533 2.06531 7.8C3.07865 5.54667 4.57198 3.78667 6.54531 2.52C8.51865 1.24 10.9386 0.599999 13.8053 0.599999C17.152 0.599999 19.8853 1.46 22.0053 3.18C24.1253 4.88667 25.5786 7.18 26.3653 10.06L23.3653 10.84C22.752 8.56 21.652 6.75333 20.0653 5.42C18.4786 4.08666 16.392 3.42 13.8053 3.42C11.552 3.42 9.67865 3.93333 8.18531 4.96C6.69198 5.98667 5.56531 7.42 4.80531 9.26C4.05865 11.0867 3.67198 13.2 3.64531 15.6C3.63198 18 3.99865 20.1133 4.74531 21.94C5.50531 23.7667 6.63865 25.2 8.14531 26.24C9.66531 27.2667 11.552 27.78 13.8053 27.78C16.392 27.78 18.4786 27.1133 20.0653 25.78C21.652 24.4333 22.752 22.6267 23.3653 20.36L26.3653 21.14C25.5786 24.02 24.1253 26.32 22.0053 28.04C19.8853 29.7467 17.152 30.6 13.8053 30.6ZM46.4781 30L46.4781 18.98C46.4781 17.78 46.3648 16.68 46.1381 15.68C45.9115 14.6667 45.5448 13.7867 45.0381 13.04C44.5448 12.28 43.8981 11.6933 43.0981 11.28C42.3115 10.8667 41.3515 10.66 40.2181 10.66C39.1781 10.66 38.2581 10.84 37.4581 11.2C36.6715 11.56 36.0048 12.08 35.4581 12.76C34.9248 13.4267 34.5181 14.24 34.2381 15.2C33.9581 16.16 33.8181 17.2533 33.8181 18.48L31.7381 18.02C31.7381 15.8067 32.1248 13.9467 32.8981 12.44C33.6715 10.9333 34.7381 9.79333 36.0981 9.02C37.4581 8.24667 39.0181 7.86 40.7781 7.86C42.0715 7.86 43.1981 8.06 44.1581 8.46C45.1315 8.86 45.9515 9.4 46.6181 10.08C47.2981 10.76 47.8448 11.54 48.2581 12.42C48.6715 13.2867 48.9715 14.2133 49.1581 15.2C49.3448 16.1733 49.4381 17.1467 49.4381 18.12L49.4381 30L46.4781 30ZM30.8581 30L30.8581 1.2L33.5181 1.2L33.5181 17.46L33.8181 17.46L33.8181 30L30.8581 30ZM63.8681 30.6C61.7615 30.6 59.9348 30.1333 58.3881 29.2C56.8548 28.2667 55.6615 26.9533 54.8081 25.26C53.9548 23.5667 53.5281 21.58 53.5281 19.3C53.5281 16.94 53.9481 14.9 54.7881 13.18C55.6281 11.46 56.8081 10.1333 58.3281 9.2C59.8615 8.26667 61.6681 7.8 63.7481 7.8C65.8815 7.8 67.7015 8.29333 69.2081 9.28C70.7148 10.2533 71.8548 11.6533 72.6281 13.48C73.4015 15.3067 73.7548 17.4867 73.6881 20.02L70.6881 20.02L70.6881 18.98C70.6348 16.18 70.0281 14.0667 68.8681 12.64C67.7215 11.2133 66.0415 10.5 63.8281 10.5C61.5081 10.5 59.7281 11.2533 58.4881 12.76C57.2615 14.2667 56.6481 16.4133 56.6481 19.2C56.6481 21.92 57.2615 24.0333 58.4881 25.54C59.7281 27.0333 61.4815 27.78 63.7481 27.78C65.2948 27.78 66.6415 27.4267 67.7881 26.72C68.9481 26 69.8615 24.9667 70.5281 23.62L73.2681 24.68C72.4148 26.56 71.1548 28.02 69.4881 29.06C67.8348 30.0867 65.9615 30.6 63.8681 30.6ZM55.6081 20.02L55.6081 17.56L72.1081 17.56L72.1081 20.02L55.6081 20.02ZM87.1866 30.6C85.0132 30.6 83.1732 30.1133 81.6666 29.14C80.1599 28.1667 79.0132 26.8267 78.2266 25.12C77.4532 23.4 77.0532 21.4267 77.0266 19.2C77.0532 16.9333 77.4666 14.9467 78.2666 13.24C79.0666 11.52 80.2199 10.1867 81.7266 9.24C83.2332 8.28 85.0599 7.8 87.2066 7.8C89.3932 7.8 91.2932 8.33333 92.9066 9.4C94.5332 10.4667 95.6466 11.9267 96.2466 13.78L93.3666 14.7C92.8599 13.4067 92.0532 12.4067 90.9466 11.7C89.8532 10.98 88.5999 10.62 87.1866 10.62C85.5999 10.62 84.2866 10.9867 83.2466 11.72C82.2066 12.44 81.4332 13.4467 80.9266 14.74C80.4199 16.0333 80.1599 17.52 80.1466 19.2C80.1732 21.7867 80.7732 23.8667 81.9466 25.44C83.1199 27 84.8666 27.78 87.1866 27.78C88.6532 27.78 89.8999 27.4467 90.9266 26.78C91.9666 26.1 92.7532 25.1133 93.2866 23.82L96.2466 24.7C95.4466 26.62 94.2732 28.0867 92.7266 29.1C91.1799 30.1 89.3332 30.6 87.1866 30.6ZM100.455 30L100.475 1.2L103.435 1.2L103.435 18.8L113.075 8.4L116.995 8.4L106.875 19.2L118.315 30L114.035 30L103.435 19.6L103.435 30L100.455 30ZM120.819 30L120.819 1.2L123.759 1.2L123.759 30L120.819 30ZM145.455 30L145.455 18.98C145.455 17.78 145.341 16.68 145.115 15.68C144.888 14.6667 144.521 13.7867 144.015 13.04C143.521 12.28 142.875 11.6933 142.075 11.28C141.288 10.8667 140.328 10.66 139.195 10.66C138.155 10.66 137.235 10.84 136.435 11.2C135.648 11.56 134.981 12.08 134.435 12.76C133.901 13.4267 133.495 14.24 133.215 15.2C132.935 16.16 132.795 17.2533 132.795 18.48L130.715 18.02C130.715 15.8067 131.101 13.9467 131.875 12.44C132.648 10.9333 133.715 9.79333 135.075 9.02C136.435 8.24667 137.995 7.86 139.755 7.86C141.048 7.86 142.175 8.06 143.135 8.46C144.108 8.86 144.928 9.4 145.595 10.08C146.275 10.76 146.821 11.54 147.235 12.42C147.648 13.2867 147.948 14.2133 148.135 15.2C148.321 16.1733 148.415 17.1467 148.415 18.12L148.415 30L145.455 30ZM129.835 30L129.835 8.4L132.495 8.4L132.495 13.72L132.795 13.72L132.795 30L129.835 30ZM169.305 30L169.305 18.98C169.305 17.78 169.191 16.68 168.965 15.68C168.738 14.6667 168.371 13.7867 167.865 13.04C167.371 12.28 166.725 11.6933 165.925 11.28C165.138 10.8667 164.178 10.66 163.045 10.66C162.005 10.66 161.085 10.84 160.285 11.2C159.498 11.56 158.831 12.08 158.285 12.76C157.751 13.4267 157.345 14.24 157.065 15.2C156.785 16.16 156.645 17.2533 156.645 18.48L154.565 18.02C154.565 15.8067 154.951 13.9467 155.725 12.44C156.498 10.9333 157.565 9.79333 158.925 9.02C160.285 8.24667 161.845 7.86 163.605 7.86C164.898 7.86 166.025 8.06 166.985 8.46C167.958 8.86 168.778 9.4 169.445 10.08C170.125 10.76 170.671 11.54 171.085 12.42C171.498 13.2867 171.798 14.2133 171.985 15.2C172.171 16.1733 172.265 17.1467 172.265 18.12L172.265 30L169.305 30ZM153.685 30L153.685 8.4L156.345 8.4L156.345 13.72L156.645 13.72L156.645 30L153.685 30Z" fill="white"/>
</svg>
